<svg width="120.302490234375px" height="100.021240234375px" xmlns="http://www.w3.org/2000/svg" viewBox="173.8487548828125 13.9893798828125 152.302490234375 122.021240234375" style="background: rgba(0, 0, 0, 0);" preserveAspectRatio="xMidYMid"><defs><filter id="editing-vr"><feFlood flood-color="#f00" flood-opacity="0.7" result="c1"></feFlood><feFlood flood-color="#00f" flood-opacity="0.7" result="c3"></feFlood><feComposite operator="in" in="c1" in2="SourceAlpha" result="text-c1"></feComposite><feComposite operator="in" in="c3" in2="SourceAlpha" result="text-c3"></feComposite><feOffset in="text-c1" dx="5" dy="-1" result="text1"></feOffset><feOffset in="text-c3" dx="-5" dy="1" result="text3"></feOffset><feBlend in="SourceGraphic" in2="text1" mode="multiply" result="text4"></feBlend><feBlend in="text4" in2="text3" mode="multiply"></feBlend></filter></defs><g filter="url(#editing-vr)"><g transform="translate(202.89499950408936, 95.44218635559082)"><path d="M27.01-10.82L27.01-10.82L27.01-10.82Q28.61-9.73 28.61-7.33L28.61-7.33L28.61-7.33Q28.61-4.93 27.39-3.39L27.39-3.39L27.39-3.39Q26.18-1.86 24.19-0.83L24.19-0.83L24.19-0.83Q20.10 1.28 15.68 1.28L15.68 1.28L15.68 1.28Q11.26 1.28 8.67 0.32L8.67 0.32L8.67 0.32Q6.08-0.64 4.35-2.43L4.35-2.43L4.35-2.43Q0.96-5.82 0.96-12.03L0.96-12.03L0.96-12.03Q0.96-21.70 6.21-27.58L6.21-27.58L6.21-27.58Q11.84-33.92 21.63-33.92L21.63-33.92L21.63-33.92Q27.71-33.92 30.72-31.36L30.72-31.36L30.72-31.36Q32.96-29.44 32.96-26.30L32.96-26.30L32.96-26.30Q32.96-15.04 13.50-15.04L13.50-15.04L13.50-15.04Q13.25-13.38 13.25-11.97L13.25-11.97L13.25-11.97Q13.25-9.02 14.56-7.90L14.56-7.90L14.56-7.90Q15.87-6.78 18.30-6.78L18.30-6.78L18.30-6.78Q20.74-6.78 23.33-7.90L23.33-7.90L23.33-7.90Q25.92-9.02 27.01-10.82ZM13.95-17.79L13.95-17.79L13.95-17.79Q18.50-17.79 21.12-20.61L21.12-20.61L21.12-20.61Q23.74-23.30 23.74-27.58L23.74-27.58L23.74-27.58Q23.74-29.06 23.20-29.86L23.20-29.86L23.20-29.86Q22.66-30.66 21.57-30.66L21.57-30.66L21.57-30.66Q20.48-30.66 19.55-30.24L19.55-30.24L19.55-30.24Q18.62-29.82 17.66-28.42L17.66-28.42L17.66-28.42Q15.30-25.22 13.95-17.79ZM36.16-6.40L36.16-6.40L36.16-6.40Q36.16-8.13 37.06-12.48L37.06-12.48L40.45-29.76L36.67-29.76L36.93-31.68L36.93-31.68Q44.61-33.98 52.03-39.62L52.03-39.62L55.10-39.62L53.57-32.64L58.56-32.64L57.98-29.76L53.06-29.76L49.79-12.48L49.79-12.48Q48.96-8.51 48.96-7.17L48.96-7.17L48.96-7.17Q48.96-4.10 51.65-3.46L51.65-3.46L51.65-3.46Q51.01-1.28 48.70 0L48.70 0L48.70 0Q46.40 1.28 43.14 1.28L43.14 1.28L43.14 1.28Q39.87 1.28 38.02-0.77L38.02-0.77L38.02-0.77Q36.16-2.82 36.16-6.40ZM85.31 1.28L85.31 1.28L85.31 1.28Q77.57 1.28 77.57-4.74L77.57-4.74L77.57-4.74Q77.63-6.40 78.14-9.22L78.14-9.22L79.30-15.10L79.30-15.10Q81.02-23.42 81.02-25.28L81.02-25.28L81.02-25.28Q81.02-28.99 78.85-28.99L78.85-28.99L78.85-28.99Q75.20-28.99 73.28-19.46L73.28-19.46L69.50 0L56.64 1.28L63.30-32.70L73.79-33.92L72.77-27.65L72.77-27.65Q75.78-33.92 84.99-33.92L84.99-33.92L84.99-33.92Q89.47-33.92 91.36-32.03L91.36-32.03L91.36-32.03Q93.25-30.14 93.25-25.92L93.25-25.92L93.25-25.92Q93.25-21.95 91.20-12.67L91.20-12.67L91.20-12.67Q90.24-8.51 90.24-6.94L90.24-6.94L90.24-6.94Q90.24-5.38 91.10-4.48L91.10-4.48L91.10-4.48Q91.97-3.58 93.25-3.46L93.25-3.46L93.25-3.46Q92.61-1.28 90.40 0L90.40 0L90.40 0Q88.19 1.28 85.31 1.28Z" fill="#444"></path></g></g><style>text {
  font-size: 64px;
  font-family: Arial Black;
  dominant-baseline: central;
  text-anchor: middle;
}</style></svg>